<?xml version="1.0" encoding="UTF-8"?>
<svg id="Layer_1" xmlns="http://www.w3.org/2000/svg" version="1.1" viewBox="0 0 240 36">
  <!-- Generator: Adobe Illustrator 29.8.3, SVG Export Plug-In . SVG Version: 2.1.1 Build 3)  -->
  <defs>
    <style>
      .st0 {
        fill: #231f20;
      }

      .st1 {
        fill: #1c75bc;
      }
    </style>
  </defs>
  <path class="st1" d="M90.42,34.58l-11.27-15.64-3.95,5.59h-3.11l5.46-7.5L65.97.86h3.09l10.17,14.2,3.72-5.23h2.96l-5.14,7.1,12.8,17.65s-3.15,0-3.15,0Z"/>
  <path d="M13.06,9.84v14.7h-2.73v-6.3H2.73v6.3H0v-14.7h2.73v6.07h7.6v-6.07s2.73,0,2.73,0Z"/>
  <path d="M33.91,22.24v2.29h-11.02v-14.7h10.73v2.29h-8v3.82h7.1v2.25h-7.1v4.05s8.29,0,8.29,0Z"/>
  <path d="M42.84,9.84h2.73v12.39h7.68v2.31h-10.41s0-14.7,0-14.7Z"/>
  <path class="st0" d="M61.3,9.84h2.73v14.7h-2.73v-14.7Z"/>
  <path d="M118.39,9.84v14.7h-1.53v-6.78h-9.2v6.78h-1.55v-14.7h1.55v6.55h9.2v-6.55s1.53,0,1.53,0Z"/>
  <path d="M138.28,20.61h-8.19l-1.76,3.93h-1.62l6.72-14.7h1.53l6.72,14.7h-1.64l-1.76-3.93ZM137.71,19.35l-3.53-7.89-3.53,7.89h7.06Z"/>
  <path d="M162.28,20.61c0,2.5-1.85,3.93-5.52,3.93h-6.76v-14.7h6.34c3.28,0,5.17,1.39,5.17,3.78,0,1.68-.9,2.79-2.25,3.34,1.89.42,3.02,1.66,3.02,3.65ZM151.55,11.12v5.33h4.68c2.35,0,3.72-.9,3.72-2.67s-1.36-2.67-3.72-2.67h-4.68ZM160.73,20.48c0-1.91-1.41-2.75-3.99-2.75h-5.19v5.52h5.19c2.58,0,3.99-.84,3.99-2.77Z"/>
  <path d="M171.72,9.84h1.55v14.7h-1.55v-14.7Z"/>
  <path d="M186.79,11.18h-5.17v-1.34h11.88v1.34h-5.17v13.35h-1.55v-13.35h0Z"/>
  <path d="M210.35,20.61h-8.19l-1.76,3.93h-1.62l6.72-14.7h1.53l6.72,14.7h-1.64l-1.76-3.93h0ZM209.79,19.35l-3.53-7.89-3.53,7.89h7.06Z"/>
  <path d="M224.19,11.18h-5.17v-1.34h11.88v1.34h-5.17v13.35h-1.55v-13.35h0Z"/>
</svg>